<mxfile host="app.diagrams.net" modified="2022-06-06T19:33:35.420Z" agent="5.0 (X11; Linux x86_64) AppleWebKit/537.36 (KHTML, like Gecko) Chrome/102.0.5005.61 Safari/537.36" etag="1Ztufbk5LYazRHeaEaCd" version="19.0.1" type="github" pages="2">
  <diagram id="T3S-fQNFISeFsxL23VkK" name="Page-1">
    <mxGraphModel dx="1422" dy="805" grid="1" gridSize="10" guides="1" tooltips="1" connect="1" arrows="1" fold="1" page="1" pageScale="1" pageWidth="850" pageHeight="1100" math="0" shadow="0">
      <root>
        <mxCell id="0" />
        <mxCell id="1" parent="0" />
        <mxCell id="d89broVgK2nXseQex8t1-26" style="edgeStyle=orthogonalEdgeStyle;rounded=0;orthogonalLoop=1;jettySize=auto;html=1;exitX=0.5;exitY=1;exitDx=0;exitDy=0;entryX=0.5;entryY=0;entryDx=0;entryDy=0;fontSize=21;curved=1;sketch=1;strokeColor=#FF6392;fontColor=#5AA9E6;" parent="1" source="d89broVgK2nXseQex8t1-18" target="d89broVgK2nXseQex8t1-21" edge="1">
          <mxGeometry relative="1" as="geometry" />
        </mxCell>
        <mxCell id="d89broVgK2nXseQex8t1-18" value="&lt;div style=&quot;text-align: justify;&quot;&gt;&lt;span style=&quot;background-color: initial;&quot;&gt;&lt;b&gt;Market&lt;/b&gt;&lt;/span&gt;&lt;/div&gt;&lt;div style=&quot;text-align: justify; font-size: 21px;&quot;&gt;&lt;span style=&quot;background-color: initial;&quot;&gt;&lt;font style=&quot;font-size: 21px;&quot;&gt;marketId&lt;/font&gt;&lt;/span&gt;&lt;/div&gt;&lt;div style=&quot;text-align: justify; font-size: 21px;&quot;&gt;&lt;span style=&quot;background-color: initial;&quot;&gt;&lt;font style=&quot;font-size: 21px;&quot;&gt;marketName&lt;/font&gt;&lt;/span&gt;&lt;/div&gt;&lt;div style=&quot;text-align: justify; font-size: 21px;&quot;&gt;&lt;span style=&quot;background-color: initial;&quot;&gt;&lt;font style=&quot;font-size: 21px;&quot;&gt;marketAdmin&lt;/font&gt;&lt;/span&gt;&lt;/div&gt;&lt;div style=&quot;text-align: justify; font-size: 21px;&quot;&gt;&lt;span style=&quot;background-color: initial;&quot;&gt;&lt;font style=&quot;font-size: 21px;&quot;&gt;marketBio&lt;/font&gt;&lt;/span&gt;&lt;/div&gt;&lt;div style=&quot;text-align: justify; font-size: 21px;&quot;&gt;&lt;span style=&quot;background-color: initial;&quot;&gt;&lt;font style=&quot;font-size: 21px;&quot;&gt;marketPhone&lt;/font&gt;&lt;/span&gt;&lt;/div&gt;&lt;div style=&quot;text-align: justify; font-size: 21px;&quot;&gt;&lt;span style=&quot;background-color: initial;&quot;&gt;&lt;font style=&quot;font-size: 21px;&quot;&gt;marketLogin&lt;/font&gt;&lt;/span&gt;&lt;/div&gt;&lt;div style=&quot;text-align: justify; font-size: 21px;&quot;&gt;&lt;span style=&quot;background-color: initial;&quot;&gt;&lt;font style=&quot;font-size: 21px;&quot;&gt;marketPassword&lt;/font&gt;&lt;/span&gt;&lt;/div&gt;&lt;div style=&quot;text-align: justify;&quot;&gt;&lt;/div&gt;" style="text;html=1;strokeColor=#FF6392;fillColor=#FFE45E;align=center;verticalAlign=middle;whiteSpace=wrap;rounded=0;fontSize=22;sketch=1;fontColor=#5AA9E6;" parent="1" vertex="1">
          <mxGeometry x="40" y="40" width="280" height="280" as="geometry" />
        </mxCell>
        <mxCell id="d89broVgK2nXseQex8t1-29" style="edgeStyle=orthogonalEdgeStyle;rounded=0;orthogonalLoop=1;jettySize=auto;html=1;fontSize=21;entryX=1;entryY=0.5;entryDx=0;entryDy=0;curved=1;sketch=1;strokeColor=#FF6392;fontColor=#5AA9E6;" parent="1" source="d89broVgK2nXseQex8t1-19" target="d89broVgK2nXseQex8t1-23" edge="1">
          <mxGeometry relative="1" as="geometry">
            <mxPoint x="770" y="910" as="targetPoint" />
            <Array as="points">
              <mxPoint x="720" y="180" />
              <mxPoint x="720" y="820" />
            </Array>
          </mxGeometry>
        </mxCell>
        <mxCell id="d89broVgK2nXseQex8t1-19" value="&lt;div style=&quot;text-align: justify;&quot;&gt;&lt;b&gt;User&lt;/b&gt;&lt;/div&gt;&lt;div style=&quot;text-align: justify; font-size: 21px;&quot;&gt;userId&lt;/div&gt;&lt;div style=&quot;text-align: justify; font-size: 21px;&quot;&gt;userFirstName&lt;/div&gt;&lt;div style=&quot;text-align: justify; font-size: 21px;&quot;&gt;userLastName&lt;/div&gt;&lt;div style=&quot;text-align: justify; font-size: 21px;&quot;&gt;userPhone&lt;/div&gt;&lt;div style=&quot;text-align: justify; font-size: 21px;&quot;&gt;userAddress&lt;/div&gt;&lt;div style=&quot;text-align: justify; font-size: 21px;&quot;&gt;userGender&lt;/div&gt;&lt;div style=&quot;text-align: justify;&quot;&gt;&lt;/div&gt;" style="text;html=1;strokeColor=#FF6392;fillColor=#FFE45E;align=center;verticalAlign=middle;whiteSpace=wrap;rounded=0;fontSize=22;sketch=1;fontColor=#5AA9E6;" parent="1" vertex="1">
          <mxGeometry x="360" y="40" width="280" height="280" as="geometry" />
        </mxCell>
        <mxCell id="d89broVgK2nXseQex8t1-28" style="edgeStyle=orthogonalEdgeStyle;rounded=0;orthogonalLoop=1;jettySize=auto;html=1;fontSize=21;curved=1;sketch=1;strokeColor=#FF6392;fontColor=#5AA9E6;" parent="1" source="d89broVgK2nXseQex8t1-21" edge="1">
          <mxGeometry relative="1" as="geometry">
            <mxPoint x="180" y="690" as="targetPoint" />
          </mxGeometry>
        </mxCell>
        <mxCell id="d89broVgK2nXseQex8t1-21" value="&lt;div style=&quot;text-align: justify;&quot;&gt;&lt;b&gt;Product&lt;/b&gt;&lt;/div&gt;&lt;div style=&quot;text-align: justify; font-size: 21px;&quot;&gt;productId&lt;/div&gt;&lt;div style=&quot;text-align: justify; font-size: 21px;&quot;&gt;productName&lt;/div&gt;&lt;div style=&quot;text-align: justify; font-size: 21px;&quot;&gt;ProductTitle&lt;/div&gt;&lt;div style=&quot;text-align: justify; font-size: 21px;&quot;&gt;productPrice&lt;/div&gt;&lt;div style=&quot;text-align: justify; font-size: 21px;&quot;&gt;categoryId&lt;/div&gt;&lt;div style=&quot;text-align: justify; font-size: 21px;&quot;&gt;marketId&lt;/div&gt;&lt;div style=&quot;text-align: justify; font-size: 21px;&quot;&gt;&lt;br&gt;&lt;/div&gt;&lt;div style=&quot;text-align: justify;&quot;&gt;&lt;/div&gt;" style="text;html=1;align=center;verticalAlign=middle;whiteSpace=wrap;rounded=0;fontSize=22;fillColor=#FFE45E;fontColor=#5AA9E6;strokeColor=#FF6392;sketch=1;" parent="1" vertex="1">
          <mxGeometry x="40" y="360" width="280" height="280" as="geometry" />
        </mxCell>
        <mxCell id="d89broVgK2nXseQex8t1-27" style="edgeStyle=orthogonalEdgeStyle;rounded=0;orthogonalLoop=1;jettySize=auto;html=1;entryX=1;entryY=0.5;entryDx=0;entryDy=0;fontSize=21;curved=1;sketch=1;strokeColor=#FF6392;fontColor=#5AA9E6;" parent="1" source="d89broVgK2nXseQex8t1-22" target="d89broVgK2nXseQex8t1-21" edge="1">
          <mxGeometry relative="1" as="geometry" />
        </mxCell>
        <mxCell id="d89broVgK2nXseQex8t1-22" value="&lt;div style=&quot;text-align: justify;&quot;&gt;&lt;b&gt;Category&lt;/b&gt;&lt;/div&gt;&lt;div style=&quot;text-align: justify; font-size: 21px;&quot;&gt;categoryId&lt;/div&gt;&lt;div style=&quot;text-align: justify; font-size: 21px;&quot;&gt;categoryName&lt;/div&gt;&lt;div style=&quot;text-align: justify; font-size: 21px;&quot;&gt;&lt;br&gt;&lt;/div&gt;&lt;div style=&quot;text-align: justify;&quot;&gt;&lt;/div&gt;" style="text;html=1;align=center;verticalAlign=middle;whiteSpace=wrap;rounded=0;fontSize=22;fillColor=#FFE45E;fontColor=#5AA9E6;strokeColor=#FF6392;sketch=1;" parent="1" vertex="1">
          <mxGeometry x="360" y="360" width="280" height="280" as="geometry" />
        </mxCell>
        <mxCell id="d89broVgK2nXseQex8t1-23" value="&lt;div style=&quot;text-align: justify;&quot;&gt;&lt;b&gt;Order&lt;/b&gt;&lt;/div&gt;&lt;div style=&quot;text-align: justify; font-size: 21px;&quot;&gt;orderId&lt;/div&gt;&lt;div style=&quot;text-align: justify; font-size: 21px;&quot;&gt;productId&lt;/div&gt;&lt;div style=&quot;text-align: justify; font-size: 21px;&quot;&gt;marketId&lt;/div&gt;&lt;div style=&quot;text-align: justify; font-size: 21px;&quot;&gt;userId&lt;/div&gt;&lt;div style=&quot;text-align: justify; font-size: 21px;&quot;&gt;orderShipAddress&lt;/div&gt;&lt;div style=&quot;text-align: justify; font-size: 21px;&quot;&gt;orderDate&lt;/div&gt;&lt;div style=&quot;text-align: justify; font-size: 21px;&quot;&gt;&lt;br&gt;&lt;/div&gt;&lt;div style=&quot;text-align: justify;&quot;&gt;&lt;/div&gt;" style="text;html=1;align=center;verticalAlign=middle;whiteSpace=wrap;rounded=0;fontSize=22;fillColor=#FFE45E;fontColor=#5AA9E6;strokeColor=#FF6392;sketch=1;" parent="1" vertex="1">
          <mxGeometry x="40" y="680" width="280" height="280" as="geometry" />
        </mxCell>
      </root>
    </mxGraphModel>
  </diagram>
  <diagram id="xYGzjBT5dQegqVpgRLp3" name="Page-2">
    <mxGraphModel dx="1422" dy="805" grid="1" gridSize="10" guides="1" tooltips="1" connect="1" arrows="1" fold="1" page="1" pageScale="1" pageWidth="850" pageHeight="1100" math="0" shadow="0">
      <root>
        <mxCell id="0" />
        <mxCell id="1" parent="0" />
      </root>
    </mxGraphModel>
  </diagram>
</mxfile>
